<svg width="259" height="176" viewBox="0 0 259 176" fill="none" xmlns="http://www.w3.org/2000/svg">
<path d="M58.6062 46.4404L71.0415 22.0881L108.865 1.88083H154.979L256.016 80.1192L188.14 111.207L133.736 172.347L113.528 111.207L71.0415 106.544H17.1554L2.12953 63.5389L58.6062 46.4404Z" fill="#3368F1" stroke="black" stroke-width="3"/>
<path d="M77.2651 47.7903L80.5277 28.533L103.366 43.8115L77.2651 47.7903Z" fill="#EB85A7" stroke="black" stroke-width="3"/>
<path d="M44.3207 79.3819L36.9202 53.0423L2.14555 63.6259L11.2968 89.1698L44.3207 79.3819Z" fill="#EA5147" stroke="black" stroke-width="3"/>
<path d="M119.3 45.4802L125.415 32.5716L156.667 23.06L168.443 42.0832L172.746 61.5593L168.443 116.138L158.932 112.741L151.005 104.588L136.965 88.9618L124.056 72.6562L119.3 45.4802Z" fill="#EB85A7" stroke="black" stroke-width="3"/>
</svg>
